<svg xmlns="http://www.w3.org/2000/svg" xmlns:xlink="http://www.w3.org/1999/xlink" width="48" zoomAndPan="magnify" viewBox="0 0 36 36.000001" height="48" preserveAspectRatio="xMidYMid meet" version="1.0"><defs><clipPath id="bf0fab228d"><path d="M 6.332031 3.503906 L 29.683594 3.503906 L 29.683594 31.234375 L 6.332031 31.234375 Z M 6.332031 3.503906 " clip-rule="nonzero"/></clipPath></defs><g clip-path="url(#bf0fab228d)"><path fill="#ffffff" d="M 20.066406 10.265625 L 24.746094 5.507812 L 27.460938 8.257812 L 22.554688 12.886719 L 29.457031 12.886719 L 29.457031 16.707031 L 22.519531 16.707031 L 27.460938 21.453125 L 24.746094 24.148438 L 18.035156 17.480469 L 11.328125 24.148438 L 8.613281 21.460938 L 13.554688 16.714844 L 6.617188 16.714844 L 6.617188 12.886719 L 13.519531 12.886719 L 8.613281 8.257812 L 11.328125 5.507812 L 16.007812 10.265625 L 16.007812 3.503906 L 20.066406 3.503906 Z M 16.007812 22.175781 L 20.066406 22.175781 L 20.066406 31.234375 L 16.007812 31.234375 Z M 16.007812 22.175781 " fill-opacity="1" fill-rule="nonzero"/></g></svg>